<svg width="63" height="63" viewBox="0 0 63 63" fill="none" xmlns="http://www.w3.org/2000/svg">
<path d="M31.5001 11.8125C35.5705 11.8125 38.9703 8.64035 39.3751 4.67578C39.412 4.30664 39.006 3.9375 38.6368 3.9375C38.4372 3.9377 38.2394 3.97526 38.0536 4.04824C38.029 4.05809 35.4573 5.04492 31.5001 5.04492C27.5429 5.04492 24.9663 4.06055 24.9466 4.04824C24.7369 3.97527 24.5165 3.93784 24.2945 3.9375H24.2871C24.1951 3.94237 24.105 3.96535 24.0219 4.00512C23.9388 4.04489 23.8644 4.10067 23.8029 4.16925C23.7414 4.23783 23.694 4.31788 23.6635 4.4048C23.633 4.49172 23.62 4.58381 23.6251 4.67578C24.0373 8.63297 27.4396 11.8125 31.5001 11.8125Z" fill="#521018"/>
<path d="M59.7134 11.0619L43.8046 5.49275C43.7365 5.46899 43.664 5.46048 43.5923 5.46784C43.5205 5.4752 43.4512 5.49825 43.3894 5.53535C43.3275 5.57244 43.2745 5.62269 43.2342 5.68252C43.194 5.74235 43.1673 5.81031 43.1562 5.88158C42.6959 8.63914 41.2725 11.1441 39.1391 12.9509C37.0057 14.7577 34.3006 15.7493 31.5049 15.7493C28.7092 15.7493 26.0041 14.7577 23.8707 12.9509C21.7372 11.1441 20.3138 8.63914 19.8536 5.88158C19.8428 5.80912 19.8159 5.73998 19.775 5.67921C19.7341 5.61844 19.6801 5.56757 19.6171 5.53032C19.554 5.49306 19.4834 5.47035 19.4104 5.46385C19.3374 5.45736 19.2639 5.46723 19.1953 5.49275L3.28653 11.0619C2.84125 11.2177 2.46676 11.5283 2.23121 11.9371C1.99567 12.3458 1.91473 12.8256 2.00315 13.289L4.04942 24.1171C4.12817 24.5299 4.33689 24.9066 4.64507 25.1922C4.95325 25.4777 5.34472 25.6573 5.76223 25.7044L11.7768 26.3837C12.0223 26.4113 12.2484 26.5303 12.4103 26.717C12.5721 26.9037 12.6578 27.1444 12.6504 27.3914L11.7485 57.0334C11.7365 57.4154 11.836 57.7927 12.0348 58.1191C12.2337 58.4456 12.5232 58.7071 12.8682 58.8717C13.1549 59.0012 13.4666 59.0663 13.7812 59.0624H49.2187C49.5333 59.0663 49.845 59.0012 50.1317 58.8717C50.4767 58.7071 50.7662 58.4456 50.965 58.1191C51.1639 57.7927 51.2634 57.4154 51.2514 57.0334L50.3495 27.3914C50.3421 27.1444 50.4278 26.9037 50.5896 26.717C50.7515 26.5303 50.9776 26.4113 51.2231 26.3837L57.2377 25.7044C57.6552 25.6573 58.0466 25.4777 58.3548 25.1922C58.663 24.9066 58.8717 24.5299 58.9505 24.1171L60.9967 13.289C61.0852 12.8256 61.0042 12.3458 60.7687 11.9371C60.5331 11.5283 60.1586 11.2177 59.7134 11.0619Z" fill="#521018"/>
</svg>
