<svg width="41" height="47" viewBox="0 0 41 47" fill="none" xmlns="http://www.w3.org/2000/svg">
<path d="M31.1733 2.9454L25.9629 1.75C24.9212 3.9 22.8337 4.975 20.7504 4.975C18.6671 4.975 16.5816 3.9 15.5379 1.75L10.3275 2.9454M31.1733 2.9454L32.0712 3.14965C34.1712 3.63125 36.0587 4.91695 36.8212 6.9917C38.1983 10.7542 39.3316 16.7656 39.4921 25.3979C39.5129 26.4019 39.5212 26.905 39.215 27.2275C38.9087 27.55 38.415 27.55 37.4275 27.55H33.1796M31.1733 2.9454C31.1733 7.9119 31.6233 16.5227 33.1796 27.55M10.3275 2.9454L9.42747 3.14965C7.32956 3.63125 5.44206 4.91695 4.68164 6.9917C3.30247 10.7542 2.17122 16.7656 2.00872 25.3979C1.98789 26.4019 1.97956 26.905 2.28581 27.2275C2.59206 27.55 3.08581 27.55 4.07331 27.55H8.32122M10.3275 2.9454C10.3275 7.9119 9.87747 16.5227 8.32122 27.55M33.1796 27.55C33.4796 29.6742 34.0712 33.1787 34.5587 35.9995C34.9275 38.128 35.1129 39.1923 34.4129 40.5167C33.715 41.8432 33.0087 42.1485 31.5962 42.7591C29.2441 43.7782 25.7046 44.75 20.7504 44.75C15.7983 44.75 12.2566 43.7782 9.90456 42.7591C8.49206 42.1485 7.78581 41.8432 7.08789 40.5167C6.38789 39.1923 6.57331 38.128 6.94206 35.9995C7.42956 33.1787 8.02122 29.6742 8.32122 27.55" stroke="#A54D4D" stroke-width="3" stroke-linecap="round" stroke-linejoin="round"/>
<path d="M24.9817 3.89996C24.6755 11.3777 25.1651 27.0082 33.2505 29.7M16.5213 3.89996C16.8255 11.3777 16.3338 27.0082 8.25049 29.7" stroke="#A54D4D" stroke-width="3" stroke-linecap="round" stroke-linejoin="round"/>
</svg>
