<svg width="45" height="44" viewBox="0 0 45 44" fill="none" xmlns="http://www.w3.org/2000/svg">
<path d="M41.8735 16.2292H42.6026V21.9792C42.6026 23.9904 41.4695 26.7808 38.5402 27.5367L38.2665 27.6073L38.1859 27.8782C37.7013 29.5065 36.515 31.1348 34.3702 31.7043L34.0993 31.7762L34.0193 32.0447C33.7182 33.0547 33.1546 34.0579 32.2716 34.806C31.3955 35.5483 30.1783 36.0625 28.5193 36.0625H21.0401H20.8325L20.6859 36.2096L15.0616 41.8548C14.325 42.5914 13.0926 43.25 11.7693 43.25C10.7582 43.25 9.67646 42.8876 8.64367 41.8548L2.39754 35.6087C1.75117 34.9322 1.16217 33.9059 1.02891 32.7674C0.898188 31.6505 1.20019 30.391 2.39316 29.1874L3.87032 27.7311L4.01928 27.5842V27.375V19.2488L13.1228 10.1452L13.1821 10.086L13.2188 10.0106C14.3143 7.76085 16.4461 5.81252 20.186 5.81252H25.5818H25.7898L25.9364 5.66503L29.4736 2.10697C30.1501 1.46078 31.1761 0.872039 32.3144 0.738812C33.4317 0.608043 34.6917 0.910298 35.8956 2.10427C35.8958 2.10451 35.8961 2.10474 35.8963 2.10497L42.141 8.3497C42.7868 9.02553 43.3763 10.0569 43.5096 11.1986C43.6404 12.3184 43.3382 13.5766 42.1478 14.7685L41.5259 15.3697L40.6368 16.2292H41.8735ZM31.1026 30.3125V28.7292H32.686C33.6546 28.7292 34.3354 28.3928 34.757 27.8436C35.1602 27.3184 35.2693 26.672 35.2693 26.1459V24.5625H36.8526C37.8213 24.5625 38.502 24.2261 38.9237 23.6769C39.3269 23.1517 39.436 22.5054 39.436 21.9792V19.8959V19.3959H38.936H24.3526H23.8526V19.8959C23.8526 21.0597 23.4646 22.5084 22.5547 23.6554C21.6589 24.7845 20.2401 25.6459 18.1026 25.6459C15.9651 25.6459 14.5463 24.7845 13.6506 23.6554C12.7406 22.5084 12.3526 21.0597 12.3526 19.8959V16.5833V15.3762L11.4991 16.2298L7.3324 20.3965L7.18595 20.5429V20.75V28.8774L4.6449 31.4381C4.64465 31.4384 4.6444 31.4386 4.64416 31.4389C4.64124 31.4418 4.6382 31.4448 4.63506 31.448C4.52479 31.5579 4.27997 31.8021 4.20656 32.16C4.12105 32.5768 4.2861 32.9898 4.65415 33.3833L4.66012 33.3897L4.66632 33.3958L10.8949 39.6036L10.8955 39.6042L10.9047 39.6134C11.0147 39.7237 11.2589 39.9685 11.6167 40.0419C12.0336 40.1274 12.4466 39.9624 12.84 39.5943L12.8461 39.5886L12.852 39.5827L19.5389 32.8959H28.5193C29.4879 32.8959 30.1687 32.5595 30.5904 32.0102C30.9935 31.4851 31.1026 30.8387 31.1026 30.3125ZM35.9985 16.2292H36.2064L36.353 16.0817L39.8937 12.5202L39.8947 12.5192L39.9035 12.5104C40.0138 12.4005 40.2586 12.1563 40.332 11.7984C40.4175 11.3815 40.2525 10.9685 39.8844 10.5751L39.8784 10.5687L39.8722 10.5625L33.6437 4.3548L33.6431 4.3542L33.6339 4.34496C33.5239 4.23469 33.2797 3.98988 32.9218 3.91646C32.505 3.83095 32.092 3.996 31.6985 4.36405L31.6925 4.36974L31.6866 4.37563L27.083 8.97918H20.186C18.1089 8.97918 16.9043 9.86902 16.2466 10.9418C15.6125 11.9763 15.5193 13.1247 15.5193 13.6458V19.8959C15.5193 20.422 15.6284 21.0684 16.0315 21.5936C16.4532 22.1428 17.134 22.4792 18.1026 22.4792C19.0713 22.4792 19.752 22.1428 20.1737 21.5936C20.5769 21.0684 20.686 20.422 20.686 19.8959V16.2292H35.9985Z" fill="#A54D4D" stroke="#A54D4D"/>
</svg>
