<svg width="45" height="54" viewBox="0 0 45 54" fill="none" xmlns="http://www.w3.org/2000/svg">
<path d="M15.0045 0L12.7589 1.23911C12.7589 5.13781 12.8474 11.9335 14.2965 17.1796C20.7456 18.908 23.9979 18.908 30.447 17.1796C31.9182 11.9456 31.9846 6.64593 31.9957 1.23911L29.739 0C29.2523 0.698675 28.4448 1.83067 27.3275 3.23411C26.531 4.22735 25.6903 5.22545 24.8828 6.00933C24.4846 6.40127 24.0974 6.73965 23.7102 7.00379C23.312 7.27157 22.9248 7.50284 22.3717 7.50284C21.8186 7.50284 21.4315 7.27157 21.0332 7.00379C20.6461 6.73965 20.2589 6.40127 19.8607 6.00933C19.0532 5.22545 18.2124 4.22735 17.416 3.23411C16.2987 1.83067 15.4912 0.698675 15.0045 0ZM14.0531 19.3584L0.391602 49.4355C0.422575 49.5694 0.480097 49.7154 0.63054 49.898C0.85178 50.178 1.2478 50.5188 1.80422 50.8353C2.91926 51.4926 4.64936 52.089 6.75224 52.5637C10.9558 53.5131 16.6748 54 22.3717 54C28.0687 54 33.7877 53.5131 37.9913 52.5637C40.093 52.089 41.8298 51.4926 42.936 50.8353C43.5001 50.5188 43.8873 50.178 44.1085 49.898C44.2634 49.7154 44.3187 49.5694 44.3519 49.4355L30.6904 19.3584C24.2744 21.0503 20.4691 21.0503 14.0531 19.3584Z" fill="#521018"/>
</svg>
