<svg width="100" height="27" viewBox="0 0 100 27" fill="none" xmlns="http://www.w3.org/2000/svg">
<path d="M18 14C19.49 12.54 21 10.79 21 8.5C21 7.04131 20.4205 5.64236 19.3891 4.61091C18.3576 3.57946 16.9587 3 15.5 3C13.74 3 12.5 3.5 11 5C9.5 3.5 8.26 3 6.5 3C5.04131 3 3.64236 3.57946 2.61091 4.61091C1.57946 5.64236 1 7.04131 1 8.5C1 10.8 2.5 12.55 4 14L11 21L18 14Z" stroke="white" stroke-width="2" stroke-linecap="round" stroke-linejoin="round"/>
<path d="M11.0001 5L8.0401 7.96C7.83692 8.16171 7.67567 8.40162 7.56562 8.66593C7.45558 8.93023 7.39893 9.2137 7.39893 9.5C7.39893 9.7863 7.45558 10.0698 7.56562 10.3341C7.67567 10.5984 7.83692 10.8383 8.0401 11.04C8.8601 11.86 10.1701 11.89 11.0401 11.11L13.1101 9.21C13.629 8.73919 14.3045 8.47839 15.0051 8.47839C15.7057 8.47839 16.3813 8.73919 16.9001 9.21L19.8601 11.87M17.0001 15L15.0001 13M14.0001 18L12.0001 16" stroke="white" stroke-width="2" stroke-linecap="round" stroke-linejoin="round"/>
<path d="M26.298 21C25.99 21 25.7627 20.89 25.616 20.67C25.484 20.45 25.418 20.1493 25.418 19.768C25.418 19.548 25.44 19.306 25.484 19.042C25.528 18.778 25.5793 18.4993 25.638 18.206C25.814 17.4287 26.0853 16.5707 26.452 15.632C26.8333 14.6787 27.266 13.7033 27.75 12.706C28.2487 11.694 28.7473 10.7113 29.246 9.758C29.7593 8.80467 30.236 7.932 30.676 7.14C30.7053 7.08133 30.764 6.97133 30.852 6.81C30.9547 6.64867 31.0353 6.53133 31.094 6.458C30.522 6.47267 29.906 6.546 29.246 6.678C28.6007 6.79533 27.9773 6.964 27.376 7.184C26.7893 7.404 26.2833 7.66067 25.858 7.954C25.4473 8.24733 25.1833 8.57 25.066 8.922C25.0513 8.966 25.022 8.988 24.978 8.988C24.846 8.988 24.78 8.88533 24.78 8.68C24.78 8.636 24.7947 8.57 24.824 8.482C24.9707 8.10067 25.1393 7.76333 25.33 7.47C25.5207 7.17667 25.7187 6.92733 25.924 6.722C26.408 6.22333 26.9507 5.92267 27.552 5.82C28.1533 5.70267 28.7913 5.644 29.466 5.644H34.46C34.1373 5.89333 33.756 6.348 33.316 7.008C32.876 7.65333 32.4213 8.38667 31.952 9.208C31.7467 9.57467 31.49 10.0513 31.182 10.638C30.874 11.2247 30.5513 11.8773 30.214 12.596C29.8767 13.3 29.554 14.0113 29.246 14.73C28.938 15.4487 28.674 16.1307 28.454 16.776C28.234 17.4067 28.0947 17.9493 28.036 18.404C28.0213 18.4773 28.014 18.5507 28.014 18.624C28.014 18.6827 28.014 18.7487 28.014 18.822C28.014 19.2327 28.124 19.5773 28.344 19.856C28.564 20.12 28.9747 20.252 29.576 20.252C30.3533 20.252 31.138 20.2227 31.93 20.164C32.7367 20.0907 33.5213 19.944 34.284 19.724C34.9293 19.5333 35.516 19.2767 36.044 18.954C36.572 18.6313 36.9533 18.228 37.188 17.744C37.2173 17.6853 37.254 17.656 37.298 17.656C37.4007 17.656 37.452 17.7367 37.452 17.898C37.452 17.9273 37.4447 17.964 37.43 18.008C37.43 18.052 37.4227 18.1033 37.408 18.162C37.2907 18.5433 37.1513 18.8807 36.99 19.174C36.8287 19.4673 36.6673 19.7167 36.506 19.922C36.0953 20.4207 35.56 20.7287 34.9 20.846C34.2547 20.9487 33.6093 21 32.964 21H26.298ZM40.8029 21.176C40.1282 21.176 39.5415 20.9633 39.0429 20.538C38.5589 20.1127 38.3169 19.4307 38.3169 18.492C38.3169 17.8027 38.4415 17.084 38.6909 16.336C38.9402 15.588 39.2922 14.8913 39.7469 14.246C40.2162 13.6007 40.7809 13.0727 41.4409 12.662C42.1009 12.2513 42.8415 12.046 43.6629 12.046C44.3375 12.046 44.8582 12.178 45.2249 12.442C45.6062 12.6913 45.8775 13.0287 46.0389 13.454C46.2002 13.8793 46.2809 14.334 46.2809 14.818C46.2809 15.1847 46.2369 15.5587 46.1489 15.94C46.0755 16.3067 45.9655 16.6733 45.8189 17.04C46.0682 17.3333 46.3835 17.48 46.7649 17.48C47.1755 17.48 47.5569 17.326 47.9089 17.018C48.1142 16.842 48.2975 16.622 48.4589 16.358C48.6349 16.0793 48.7889 15.8227 48.9209 15.588C48.9649 15.5 49.0162 15.456 49.0749 15.456C49.1482 15.456 49.1849 15.5587 49.1849 15.764C49.1849 15.896 49.1629 16.05 49.1189 16.226C49.0895 16.402 49.0162 16.578 48.8989 16.754C48.6789 17.1353 48.4515 17.4287 48.2169 17.634C47.9822 17.8247 47.7182 17.9787 47.4249 18.096C47.2049 18.184 46.9702 18.228 46.7209 18.228C46.2662 18.228 45.8555 18.0887 45.4889 17.81C45.3715 18.0593 45.2249 18.316 45.0489 18.58C44.6235 19.2987 44.0735 19.9147 43.3989 20.428C42.7242 20.9267 41.8589 21.176 40.8029 21.176ZM41.6389 20.34C41.9762 20.34 42.2989 20.23 42.6069 20.01C42.9295 19.7753 43.2229 19.4893 43.4869 19.152C43.7509 18.8147 43.9782 18.4627 44.1689 18.096C44.3742 17.7293 44.5429 17.4067 44.6749 17.128C44.1762 16.7027 43.9269 16.1673 43.9269 15.522C43.9269 15.0967 44.0442 14.7667 44.2789 14.532C44.5135 14.2973 44.8362 14.1947 45.2469 14.224C45.2322 13.8867 45.1442 13.608 44.9829 13.388C44.8215 13.168 44.5575 13.058 44.1909 13.058C43.8535 13.058 43.5309 13.1607 43.2229 13.366C42.9295 13.5713 42.6509 13.8353 42.3869 14.158C42.1375 14.466 41.9102 14.7887 41.7049 15.126C41.5142 15.4487 41.3529 15.742 41.2209 16.006C41.0302 16.3873 40.8542 16.8493 40.6929 17.392C40.5315 17.9347 40.4509 18.4407 40.4509 18.91C40.4509 19.3207 40.5315 19.6653 40.6929 19.944C40.8689 20.208 41.1842 20.34 41.6389 20.34ZM50.1056 21.176C49.4309 21.176 48.8443 20.9633 48.3456 20.538C47.8616 20.1127 47.6196 19.4307 47.6196 18.492C47.6196 17.8027 47.7443 17.084 47.9936 16.336C48.2429 15.588 48.5949 14.8913 49.0496 14.246C49.5189 13.6007 50.0836 13.0727 50.7436 12.662C51.4036 12.2513 52.1443 12.046 52.9656 12.046C53.6403 12.046 54.1609 12.178 54.5276 12.442C54.9089 12.6913 55.1803 13.0287 55.3416 13.454C55.5029 13.8793 55.5836 14.334 55.5836 14.818C55.5836 15.1847 55.5396 15.5587 55.4516 15.94C55.3783 16.3067 55.2683 16.6733 55.1216 17.04C55.3709 17.3333 55.6863 17.48 56.0676 17.48C56.4783 17.48 56.8596 17.326 57.2116 17.018C57.4169 16.842 57.6003 16.622 57.7616 16.358C57.9376 16.0793 58.0916 15.8227 58.2236 15.588C58.2676 15.5 58.3189 15.456 58.3776 15.456C58.4509 15.456 58.4876 15.5587 58.4876 15.764C58.4876 15.896 58.4656 16.05 58.4216 16.226C58.3923 16.402 58.3189 16.578 58.2016 16.754C57.9816 17.1353 57.7543 17.4287 57.5196 17.634C57.2849 17.8247 57.0209 17.9787 56.7276 18.096C56.5076 18.184 56.2729 18.228 56.0236 18.228C55.5689 18.228 55.1583 18.0887 54.7916 17.81C54.6743 18.0593 54.5276 18.316 54.3516 18.58C53.9263 19.2987 53.3763 19.9147 52.7016 20.428C52.0269 20.9267 51.1616 21.176 50.1056 21.176ZM50.9416 20.34C51.2789 20.34 51.6016 20.23 51.9096 20.01C52.2323 19.7753 52.5256 19.4893 52.7896 19.152C53.0536 18.8147 53.2809 18.4627 53.4716 18.096C53.6769 17.7293 53.8456 17.4067 53.9776 17.128C53.4789 16.7027 53.2296 16.1673 53.2296 15.522C53.2296 15.0967 53.3469 14.7667 53.5816 14.532C53.8163 14.2973 54.1389 14.1947 54.5496 14.224C54.5349 13.8867 54.4469 13.608 54.2856 13.388C54.1243 13.168 53.8603 13.058 53.4936 13.058C53.1563 13.058 52.8336 13.1607 52.5256 13.366C52.2323 13.5713 51.9536 13.8353 51.6896 14.158C51.4403 14.466 51.2129 14.7887 51.0076 15.126C50.8169 15.4487 50.6556 15.742 50.5236 16.006C50.3329 16.3873 50.1569 16.8493 49.9956 17.392C49.8343 17.9347 49.7536 18.4407 49.7536 18.91C49.7536 19.3207 49.8343 19.6653 49.9956 19.944C50.1716 20.208 50.4869 20.34 50.9416 20.34ZM54.0484 26.456C54.1218 26.3533 54.2171 26.17 54.3344 25.906C54.4518 25.6567 54.5764 25.3853 54.7084 25.092C54.8404 24.7987 54.9504 24.5493 55.0384 24.344C55.2878 23.728 55.5738 22.9727 55.8964 22.078C56.2191 21.198 56.5491 20.274 56.8864 19.306C57.2238 18.338 57.5464 17.414 57.8544 16.534C58.1624 15.654 58.4338 14.928 58.6684 14.356C58.8884 13.828 59.0791 13.41 59.2404 13.102C59.4018 12.7793 59.6291 12.552 59.9224 12.42C60.2304 12.2733 60.6924 12.2 61.3084 12.2H61.9684C61.7631 12.3467 61.4918 12.684 61.1544 13.212C60.8318 13.7253 60.5238 14.268 60.2304 14.84C60.3331 14.708 60.4284 14.5833 60.5164 14.466C60.6044 14.334 60.6998 14.2167 60.8024 14.114C61.2718 13.542 61.7704 13.0653 62.2984 12.684C62.8264 12.3027 63.3398 12.112 63.8384 12.112C64.2491 12.112 64.5938 12.266 64.8724 12.574C65.1658 12.882 65.3124 13.4027 65.3124 14.136C65.3124 14.8107 65.1804 15.4927 64.9164 16.182C64.6671 16.8567 64.3298 17.502 63.9044 18.118C63.4791 18.7193 63.0098 19.2547 62.4964 19.724C62.3938 19.8267 62.2764 19.9293 62.1444 20.032C62.0271 20.12 61.9024 20.208 61.7704 20.296C62.2398 20.34 62.7018 20.23 63.1564 19.966C63.6258 19.702 64.0511 19.3793 64.4324 18.998C64.8284 18.6167 65.1511 18.272 65.4004 17.964C65.6938 17.5827 65.9871 17.1427 66.2804 16.644C66.5884 16.1453 66.8378 15.7053 67.0284 15.324C67.0871 15.2213 67.1384 15.17 67.1824 15.17C67.2998 15.17 67.3584 15.302 67.3584 15.566C67.3584 15.8007 67.2851 16.0427 67.1384 16.292C67.0211 16.512 66.8598 16.7907 66.6544 17.128C66.4491 17.4653 66.2658 17.7587 66.1044 18.008C65.4298 18.9907 64.6451 19.7973 63.7504 20.428C62.8558 21.0587 61.7778 21.374 60.5164 21.374C60.4138 21.374 60.3038 21.374 60.1864 21.374C60.0838 21.374 59.9738 21.3667 59.8564 21.352C59.5044 21.3227 59.1744 21.2347 58.8664 21.088C58.5584 20.956 58.3531 20.6993 58.2504 20.318L57.0184 24.168C56.8571 24.6813 56.7104 25.1067 56.5784 25.444C56.4318 25.7813 56.2558 26.0307 56.0504 26.192C55.8304 26.368 55.5151 26.456 55.1044 26.456H54.0484ZM59.3504 20.428C59.5998 20.428 59.8858 20.3033 60.2084 20.054C60.5311 19.79 60.8464 19.4673 61.1544 19.086C61.4771 18.69 61.7484 18.3087 61.9684 17.942C62.3058 17.3553 62.5918 16.754 62.8264 16.138C63.0611 15.522 63.1784 15.016 63.1784 14.62C63.1784 14.18 63.0024 13.96 62.6504 13.96C62.3424 13.96 62.0051 14.1067 61.6384 14.4C61.3744 14.6053 61.0738 14.906 60.7364 15.302C60.4138 15.698 60.0911 16.1453 59.7684 16.644C59.4604 17.128 59.2038 17.6267 58.9984 18.14C58.8078 18.6387 58.7124 19.0933 58.7124 19.504C58.7124 19.5773 58.7124 19.6507 58.7124 19.724C58.7271 19.7827 58.7418 19.8487 58.7564 19.922C58.8298 20.2593 59.0278 20.428 59.3504 20.428ZM70.9566 10.44C70.5753 10.308 70.3846 10.0587 70.3846 9.692C70.3846 9.35467 70.5166 9.01 70.7806 8.658C71.0593 8.29133 71.36 8.05667 71.6826 7.954C71.756 7.92467 71.8146 7.91 71.8586 7.91C71.9173 7.91 71.976 7.91 72.0346 7.91C72.284 7.91 72.4893 7.98333 72.6506 8.13C72.812 8.27667 72.8926 8.44533 72.8926 8.636C72.8926 8.9 72.7533 9.12 72.4746 9.296C72.2546 9.26667 72.042 9.318 71.8366 9.45C71.6313 9.582 71.448 9.74333 71.2866 9.934C71.14 10.1247 71.03 10.2933 70.9566 10.44ZM67.1726 21.132C66.982 21.132 66.7986 21.088 66.6226 21C66.4466 20.9267 66.3 20.7727 66.1826 20.538C66.0213 20.186 65.9406 19.768 65.9406 19.284C65.9406 18.756 66.0213 18.1693 66.1826 17.524C66.344 16.864 66.5566 16.1893 66.8206 15.5C66.9233 15.2507 67.0553 14.9427 67.2166 14.576C67.378 14.2093 67.5686 13.8427 67.7886 13.476C68.0086 13.1093 68.258 12.8087 68.5366 12.574C68.83 12.3247 69.1453 12.2 69.4826 12.2C69.644 12.2 69.8713 12.2073 70.1646 12.222C70.458 12.2367 70.6706 12.2367 70.8026 12.222C70.7146 12.2807 70.612 12.398 70.4946 12.574C70.3773 12.75 70.2673 12.9333 70.1646 13.124C70.062 13.3 69.9813 13.4393 69.9226 13.542C69.5413 14.3047 69.182 15.06 68.8446 15.808C68.5073 16.556 68.2506 17.2747 68.0746 17.964C68.0453 18.0813 68.0233 18.1987 68.0086 18.316C67.994 18.4333 67.9866 18.5433 67.9866 18.646C67.9866 19.0713 68.126 19.284 68.4046 19.284C68.522 19.284 68.6466 19.2547 68.7786 19.196C68.9253 19.1227 69.094 19.0127 69.2846 18.866C69.622 18.602 69.9153 18.3013 70.1646 17.964C70.458 17.5827 70.7366 17.1793 71.0006 16.754C71.2646 16.314 71.492 15.9107 71.6826 15.544C71.756 15.4267 71.8073 15.368 71.8366 15.368C71.9246 15.368 71.9686 15.4927 71.9686 15.742C71.9686 15.8593 71.9466 15.9987 71.9026 16.16C71.8733 16.3067 71.822 16.446 71.7486 16.578C71.5433 16.93 71.3013 17.3187 71.0226 17.744C70.744 18.1693 70.458 18.58 70.1646 18.976C69.9593 19.2547 69.688 19.5627 69.3506 19.9C69.0133 20.2373 68.654 20.5307 68.2726 20.78C67.8913 21.0147 67.5246 21.132 67.1726 21.132ZM76.7602 21.132C76.2615 21.132 75.9168 20.9853 75.7262 20.692C75.5502 20.384 75.4622 20.032 75.4622 19.636C75.4622 19.152 75.5575 18.5727 75.7482 17.898C75.9388 17.2087 76.1588 16.5193 76.4082 15.83C76.6722 15.126 76.9068 14.5027 77.1122 13.96C77.1708 13.828 77.2002 13.6887 77.2002 13.542C77.2002 13.3807 77.1488 13.2633 77.0462 13.19C76.9435 13.1167 76.8115 13.08 76.6502 13.08C76.4155 13.08 76.1515 13.1533 75.8582 13.3C75.4035 13.5347 74.9708 13.9087 74.5602 14.422C74.1495 14.9353 73.8195 15.4707 73.5702 16.028C73.2915 16.6587 73.0422 17.2893 72.8222 17.92C72.6022 18.5507 72.4262 19.064 72.2942 19.46C72.2062 19.7093 72.1255 19.966 72.0522 20.23C71.9788 20.494 71.9055 20.7507 71.8322 21H69.6982C69.6982 21 69.7495 20.8167 69.8522 20.45C69.9402 20.0833 70.0575 19.7167 70.2042 19.35C70.4535 18.7047 70.7028 18.0593 70.9522 17.414C71.2162 16.7687 71.4435 16.1967 71.6342 15.698C71.6928 15.5513 71.7808 15.28 71.8982 14.884C72.0302 14.4733 72.1475 14.048 72.2502 13.608C72.3675 13.168 72.4262 12.8087 72.4262 12.53C72.4262 12.3687 72.4042 12.2587 72.3602 12.2C72.4922 12.2 72.6388 12.2 72.8002 12.2C72.9762 12.1853 73.1375 12.178 73.2842 12.178C73.4895 12.178 73.6802 12.1853 73.8562 12.2C74.0468 12.2147 74.1715 12.2513 74.2302 12.31C74.4062 12.442 74.4942 12.6327 74.4942 12.882C74.4942 13.058 74.4575 13.234 74.3842 13.41C74.3255 13.586 74.2815 13.7327 74.2522 13.85C74.4575 13.6593 74.6702 13.476 74.8902 13.3C75.1102 13.124 75.4475 12.8967 75.9022 12.618C76.1662 12.4567 76.4962 12.3247 76.8922 12.222C77.2882 12.1193 77.6475 12.068 77.9702 12.068C78.8062 12.068 79.2242 12.4567 79.2242 13.234C79.2242 13.366 79.2095 13.5127 79.1802 13.674C79.1655 13.8353 79.1215 14.0113 79.0482 14.202C78.9748 14.4367 78.8575 14.7593 78.6962 15.17C78.5348 15.5807 78.3662 16.0207 78.1902 16.49C78.0288 16.9447 77.8895 17.3773 77.7722 17.788C77.6548 18.1987 77.5962 18.5287 77.5962 18.778C77.5962 19.13 77.7282 19.306 77.9922 19.306C78.2268 19.306 78.5202 19.1593 78.8722 18.866C79.2095 18.5873 79.5028 18.2867 79.7522 17.964C80.0602 17.5827 80.3388 17.1793 80.5882 16.754C80.8522 16.314 81.0795 15.9107 81.2702 15.544C81.3435 15.4267 81.3948 15.368 81.4242 15.368C81.5122 15.368 81.5562 15.4927 81.5562 15.742C81.5562 15.8593 81.5342 15.9987 81.4902 16.16C81.4608 16.3067 81.4095 16.446 81.3362 16.578C81.1308 16.93 80.8888 17.3187 80.6102 17.744C80.3315 18.1693 80.0455 18.58 79.7522 18.976C79.5468 19.2547 79.2755 19.5627 78.9382 19.9C78.6008 20.2373 78.2415 20.5307 77.8602 20.78C77.4788 21.0147 77.1122 21.132 76.7602 21.132Z" fill="white"/>
</svg>
