<svg width="89" height="22" viewBox="0 0 89 22" fill="none" xmlns="http://www.w3.org/2000/svg">
<path d="M13.2222 6V3.5C13.2222 2.83696 12.9881 2.20107 12.5713 1.73223C12.1546 1.26339 11.5894 1 11 1H3.22222C2.63285 1 2.06762 1.26339 1.65087 1.73223C1.23413 2.20107 1 2.83696 1 3.5V18.5C1 19.163 1.23413 19.7989 1.65087 20.2678C2.06762 20.7366 2.63285 21 3.22222 21H11C11.5894 21 12.1546 20.7366 12.5713 20.2678C12.9881 19.7989 13.2222 19.163 13.2222 18.5V16" stroke="#A54D4D" stroke-width="2" stroke-linecap="round" stroke-linejoin="round"/>
<path d="M7.66699 11H21.0003M21.0003 11L17.667 7.25M21.0003 11L17.667 14.75" stroke="#A54D4D" stroke-width="2" stroke-linecap="round" stroke-linejoin="round"/>
<path d="M37.352 13.964H40.768V15H36.078V5.242H37.352V13.964ZM45.467 15.126C44.7483 15.126 44.095 14.9627 43.507 14.636C42.9283 14.3093 42.471 13.8473 42.135 13.25C41.8083 12.6433 41.645 11.9433 41.645 11.15C41.645 10.366 41.813 9.67533 42.149 9.078C42.4943 8.47133 42.961 8.00933 43.549 7.692C44.137 7.36533 44.795 7.202 45.523 7.202C46.251 7.202 46.909 7.36533 47.497 7.692C48.085 8.00933 48.547 8.46667 48.883 9.064C49.2283 9.66133 49.401 10.3567 49.401 11.15C49.401 11.9433 49.2236 12.6433 48.869 13.25C48.5236 13.8473 48.0523 14.3093 47.455 14.636C46.8576 14.9627 46.195 15.126 45.467 15.126ZM45.467 14.006C45.9243 14.006 46.3536 13.8987 46.755 13.684C47.1563 13.4693 47.4783 13.1473 47.721 12.718C47.973 12.2887 48.099 11.766 48.099 11.15C48.099 10.534 47.9776 10.0113 47.735 9.582C47.4923 9.15267 47.175 8.83533 46.783 8.63C46.391 8.41533 45.9663 8.308 45.509 8.308C45.0423 8.308 44.613 8.41533 44.221 8.63C43.8383 8.83533 43.5303 9.15267 43.297 9.582C43.0636 10.0113 42.947 10.534 42.947 11.15C42.947 11.7753 43.059 12.3027 43.283 12.732C43.5163 13.1613 43.8243 13.4833 44.207 13.698C44.5896 13.9033 45.0096 14.006 45.467 14.006ZM54.24 7.202C54.9027 7.202 55.4814 7.34667 55.976 7.636C56.48 7.92533 56.8534 8.28933 57.096 8.728V7.328H58.384V15.168C58.384 15.868 58.2347 16.4887 57.936 17.03C57.6374 17.5807 57.208 18.01 56.648 18.318C56.0974 18.626 55.4534 18.78 54.716 18.78C53.708 18.78 52.868 18.542 52.196 18.066C51.524 17.59 51.1274 16.9413 51.006 16.12H52.266C52.406 16.5867 52.6954 16.96 53.134 17.24C53.5727 17.5293 54.1 17.674 54.716 17.674C55.416 17.674 55.9854 17.4547 56.424 17.016C56.872 16.5773 57.096 15.9613 57.096 15.168V13.558C56.844 14.006 56.4707 14.3793 55.976 14.678C55.4814 14.9767 54.9027 15.126 54.24 15.126C53.5587 15.126 52.938 14.958 52.378 14.622C51.8274 14.286 51.3934 13.8147 51.076 13.208C50.7587 12.6013 50.6 11.9107 50.6 11.136C50.6 10.352 50.7587 9.666 51.076 9.078C51.3934 8.48067 51.8274 8.01867 52.378 7.692C52.938 7.36533 53.5587 7.202 54.24 7.202ZM57.096 11.15C57.096 10.5713 56.9794 10.0673 56.746 9.638C56.5127 9.20867 56.1954 8.882 55.794 8.658C55.402 8.42467 54.968 8.308 54.492 8.308C54.016 8.308 53.582 8.42 53.19 8.644C52.798 8.868 52.4854 9.19467 52.252 9.624C52.0187 10.0533 51.902 10.5573 51.902 11.136C51.902 11.724 52.0187 12.2373 52.252 12.676C52.4854 13.1053 52.798 13.4367 53.19 13.67C53.582 13.894 54.016 14.006 54.492 14.006C54.968 14.006 55.402 13.894 55.794 13.67C56.1954 13.4367 56.5127 13.1053 56.746 12.676C56.9794 12.2373 57.096 11.7287 57.096 11.15ZM63.883 15.126C63.1643 15.126 62.511 14.9627 61.923 14.636C61.3443 14.3093 60.887 13.8473 60.551 13.25C60.2243 12.6433 60.061 11.9433 60.061 11.15C60.061 10.366 60.229 9.67533 60.565 9.078C60.9103 8.47133 61.377 8.00933 61.965 7.692C62.553 7.36533 63.211 7.202 63.939 7.202C64.667 7.202 65.325 7.36533 65.913 7.692C66.501 8.00933 66.963 8.46667 67.299 9.064C67.6443 9.66133 67.817 10.3567 67.817 11.15C67.817 11.9433 67.6397 12.6433 67.285 13.25C66.9397 13.8473 66.4683 14.3093 65.871 14.636C65.2737 14.9627 64.611 15.126 63.883 15.126ZM63.883 14.006C64.3403 14.006 64.7697 13.8987 65.171 13.684C65.5723 13.4693 65.8943 13.1473 66.137 12.718C66.389 12.2887 66.515 11.766 66.515 11.15C66.515 10.534 66.3937 10.0113 66.151 9.582C65.9083 9.15267 65.591 8.83533 65.199 8.63C64.807 8.41533 64.3823 8.308 63.925 8.308C63.4583 8.308 63.029 8.41533 62.637 8.63C62.2543 8.83533 61.9463 9.15267 61.713 9.582C61.4797 10.0113 61.363 10.534 61.363 11.15C61.363 11.7753 61.475 12.3027 61.699 12.732C61.9323 13.1613 62.2403 13.4833 62.623 13.698C63.0057 13.9033 63.4257 14.006 63.883 14.006ZM76.2961 7.328V15H75.0221V13.866C74.7794 14.258 74.4387 14.566 74.0001 14.79C73.5707 15.0047 73.0947 15.112 72.5721 15.112C71.9747 15.112 71.4381 14.9907 70.9621 14.748C70.4861 14.496 70.1081 14.1227 69.8281 13.628C69.5574 13.1333 69.4221 12.5313 69.4221 11.822V7.328H70.6821V11.654C70.6821 12.41 70.8734 12.9933 71.2561 13.404C71.6387 13.8053 72.1614 14.006 72.8241 14.006C73.5054 14.006 74.0421 13.796 74.4341 13.376C74.8261 12.956 75.0221 12.3447 75.0221 11.542V7.328H76.2961ZM80.0011 8.378V12.9C80.0011 13.2733 80.0805 13.5393 80.2391 13.698C80.3978 13.8473 80.6731 13.922 81.0651 13.922H82.0031V15H80.8551C80.1458 15 79.6138 14.8367 79.2591 14.51C78.9045 14.1833 78.7271 13.6467 78.7271 12.9V8.378H77.7331V7.328H78.7271V5.396H80.0011V7.328H82.0031V8.378H80.0011Z" fill="#A54D4D"/>
</svg>
