<svg width="101" height="27" viewBox="0 0 101 27" fill="none" xmlns="http://www.w3.org/2000/svg">
<path d="M19 14C20.49 12.54 22 10.79 22 8.5C22 7.04131 21.4205 5.64236 20.3891 4.61091C19.3576 3.57946 17.9587 3 16.5 3C14.74 3 13.5 3.5 12 5C10.5 3.5 9.26 3 7.5 3C6.04131 3 4.64236 3.57946 3.61091 4.61091C2.57946 5.64236 2 7.04131 2 8.5C2 10.8 3.5 12.55 5 14L12 21L19 14Z" stroke="#A54D4D" stroke-width="2" stroke-linecap="round" stroke-linejoin="round"/>
<path d="M12.0001 5L9.0401 7.96C8.83692 8.16171 8.67567 8.40162 8.56562 8.66593C8.45558 8.93023 8.39893 9.2137 8.39893 9.5C8.39893 9.7863 8.45558 10.0698 8.56562 10.3341C8.67567 10.5984 8.83692 10.8383 9.0401 11.04C9.8601 11.86 11.1701 11.89 12.0401 11.11L14.1101 9.21C14.629 8.73919 15.3045 8.47839 16.0051 8.47839C16.7057 8.47839 17.3813 8.73919 17.9001 9.21L20.8601 11.87M18.0001 15L16.0001 13M15.0001 18L13.0001 16" stroke="#A54D4D" stroke-width="2" stroke-linecap="round" stroke-linejoin="round"/>
<path d="M27.298 21C26.99 21 26.7627 20.89 26.616 20.67C26.484 20.45 26.418 20.1493 26.418 19.768C26.418 19.548 26.44 19.306 26.484 19.042C26.528 18.778 26.5793 18.4993 26.638 18.206C26.814 17.4287 27.0853 16.5707 27.452 15.632C27.8333 14.6787 28.266 13.7033 28.75 12.706C29.2487 11.694 29.7473 10.7113 30.246 9.758C30.7593 8.80467 31.236 7.932 31.676 7.14C31.7053 7.08133 31.764 6.97133 31.852 6.81C31.9547 6.64867 32.0353 6.53133 32.094 6.458C31.522 6.47267 30.906 6.546 30.246 6.678C29.6007 6.79533 28.9773 6.964 28.376 7.184C27.7893 7.404 27.2833 7.66067 26.858 7.954C26.4473 8.24733 26.1833 8.57 26.066 8.922C26.0513 8.966 26.022 8.988 25.978 8.988C25.846 8.988 25.78 8.88533 25.78 8.68C25.78 8.636 25.7947 8.57 25.824 8.482C25.9707 8.10067 26.1393 7.76333 26.33 7.47C26.5207 7.17667 26.7187 6.92733 26.924 6.722C27.408 6.22333 27.9507 5.92267 28.552 5.82C29.1533 5.70267 29.7913 5.644 30.466 5.644H35.46C35.1373 5.89333 34.756 6.348 34.316 7.008C33.876 7.65333 33.4213 8.38667 32.952 9.208C32.7467 9.57467 32.49 10.0513 32.182 10.638C31.874 11.2247 31.5513 11.8773 31.214 12.596C30.8767 13.3 30.554 14.0113 30.246 14.73C29.938 15.4487 29.674 16.1307 29.454 16.776C29.234 17.4067 29.0947 17.9493 29.036 18.404C29.0213 18.4773 29.014 18.5507 29.014 18.624C29.014 18.6827 29.014 18.7487 29.014 18.822C29.014 19.2327 29.124 19.5773 29.344 19.856C29.564 20.12 29.9747 20.252 30.576 20.252C31.3533 20.252 32.138 20.2227 32.93 20.164C33.7367 20.0907 34.5213 19.944 35.284 19.724C35.9293 19.5333 36.516 19.2767 37.044 18.954C37.572 18.6313 37.9533 18.228 38.188 17.744C38.2173 17.6853 38.254 17.656 38.298 17.656C38.4007 17.656 38.452 17.7367 38.452 17.898C38.452 17.9273 38.4447 17.964 38.43 18.008C38.43 18.052 38.4227 18.1033 38.408 18.162C38.2907 18.5433 38.1513 18.8807 37.99 19.174C37.8287 19.4673 37.6673 19.7167 37.506 19.922C37.0953 20.4207 36.56 20.7287 35.9 20.846C35.2547 20.9487 34.6093 21 33.964 21H27.298ZM41.8029 21.176C41.1282 21.176 40.5415 20.9633 40.0429 20.538C39.5589 20.1127 39.3169 19.4307 39.3169 18.492C39.3169 17.8027 39.4415 17.084 39.6909 16.336C39.9402 15.588 40.2922 14.8913 40.7469 14.246C41.2162 13.6007 41.7809 13.0727 42.4409 12.662C43.1009 12.2513 43.8415 12.046 44.6629 12.046C45.3375 12.046 45.8582 12.178 46.2249 12.442C46.6062 12.6913 46.8775 13.0287 47.0389 13.454C47.2002 13.8793 47.2809 14.334 47.2809 14.818C47.2809 15.1847 47.2369 15.5587 47.1489 15.94C47.0755 16.3067 46.9655 16.6733 46.8189 17.04C47.0682 17.3333 47.3835 17.48 47.7649 17.48C48.1755 17.48 48.5569 17.326 48.9089 17.018C49.1142 16.842 49.2975 16.622 49.4589 16.358C49.6349 16.0793 49.7889 15.8227 49.9209 15.588C49.9649 15.5 50.0162 15.456 50.0749 15.456C50.1482 15.456 50.1849 15.5587 50.1849 15.764C50.1849 15.896 50.1629 16.05 50.1189 16.226C50.0895 16.402 50.0162 16.578 49.8989 16.754C49.6789 17.1353 49.4515 17.4287 49.2169 17.634C48.9822 17.8247 48.7182 17.9787 48.4249 18.096C48.2049 18.184 47.9702 18.228 47.7209 18.228C47.2662 18.228 46.8555 18.0887 46.4889 17.81C46.3715 18.0593 46.2249 18.316 46.0489 18.58C45.6235 19.2987 45.0735 19.9147 44.3989 20.428C43.7242 20.9267 42.8589 21.176 41.8029 21.176ZM42.6389 20.34C42.9762 20.34 43.2989 20.23 43.6069 20.01C43.9295 19.7753 44.2229 19.4893 44.4869 19.152C44.7509 18.8147 44.9782 18.4627 45.1689 18.096C45.3742 17.7293 45.5429 17.4067 45.6749 17.128C45.1762 16.7027 44.9269 16.1673 44.9269 15.522C44.9269 15.0967 45.0442 14.7667 45.2789 14.532C45.5135 14.2973 45.8362 14.1947 46.2469 14.224C46.2322 13.8867 46.1442 13.608 45.9829 13.388C45.8215 13.168 45.5575 13.058 45.1909 13.058C44.8535 13.058 44.5309 13.1607 44.2229 13.366C43.9295 13.5713 43.6509 13.8353 43.3869 14.158C43.1375 14.466 42.9102 14.7887 42.7049 15.126C42.5142 15.4487 42.3529 15.742 42.2209 16.006C42.0302 16.3873 41.8542 16.8493 41.6929 17.392C41.5315 17.9347 41.4509 18.4407 41.4509 18.91C41.4509 19.3207 41.5315 19.6653 41.6929 19.944C41.8689 20.208 42.1842 20.34 42.6389 20.34ZM51.1056 21.176C50.4309 21.176 49.8443 20.9633 49.3456 20.538C48.8616 20.1127 48.6196 19.4307 48.6196 18.492C48.6196 17.8027 48.7443 17.084 48.9936 16.336C49.2429 15.588 49.5949 14.8913 50.0496 14.246C50.5189 13.6007 51.0836 13.0727 51.7436 12.662C52.4036 12.2513 53.1443 12.046 53.9656 12.046C54.6403 12.046 55.1609 12.178 55.5276 12.442C55.9089 12.6913 56.1803 13.0287 56.3416 13.454C56.5029 13.8793 56.5836 14.334 56.5836 14.818C56.5836 15.1847 56.5396 15.5587 56.4516 15.94C56.3783 16.3067 56.2683 16.6733 56.1216 17.04C56.3709 17.3333 56.6863 17.48 57.0676 17.48C57.4783 17.48 57.8596 17.326 58.2116 17.018C58.4169 16.842 58.6003 16.622 58.7616 16.358C58.9376 16.0793 59.0916 15.8227 59.2236 15.588C59.2676 15.5 59.3189 15.456 59.3776 15.456C59.4509 15.456 59.4876 15.5587 59.4876 15.764C59.4876 15.896 59.4656 16.05 59.4216 16.226C59.3923 16.402 59.3189 16.578 59.2016 16.754C58.9816 17.1353 58.7543 17.4287 58.5196 17.634C58.2849 17.8247 58.0209 17.9787 57.7276 18.096C57.5076 18.184 57.2729 18.228 57.0236 18.228C56.5689 18.228 56.1583 18.0887 55.7916 17.81C55.6743 18.0593 55.5276 18.316 55.3516 18.58C54.9263 19.2987 54.3763 19.9147 53.7016 20.428C53.0269 20.9267 52.1616 21.176 51.1056 21.176ZM51.9416 20.34C52.2789 20.34 52.6016 20.23 52.9096 20.01C53.2323 19.7753 53.5256 19.4893 53.7896 19.152C54.0536 18.8147 54.2809 18.4627 54.4716 18.096C54.6769 17.7293 54.8456 17.4067 54.9776 17.128C54.4789 16.7027 54.2296 16.1673 54.2296 15.522C54.2296 15.0967 54.3469 14.7667 54.5816 14.532C54.8163 14.2973 55.1389 14.1947 55.5496 14.224C55.5349 13.8867 55.4469 13.608 55.2856 13.388C55.1243 13.168 54.8603 13.058 54.4936 13.058C54.1563 13.058 53.8336 13.1607 53.5256 13.366C53.2323 13.5713 52.9536 13.8353 52.6896 14.158C52.4403 14.466 52.2129 14.7887 52.0076 15.126C51.8169 15.4487 51.6556 15.742 51.5236 16.006C51.3329 16.3873 51.1569 16.8493 50.9956 17.392C50.8343 17.9347 50.7536 18.4407 50.7536 18.91C50.7536 19.3207 50.8343 19.6653 50.9956 19.944C51.1716 20.208 51.4869 20.34 51.9416 20.34ZM55.0484 26.456C55.1218 26.3533 55.2171 26.17 55.3344 25.906C55.4518 25.6567 55.5764 25.3853 55.7084 25.092C55.8404 24.7987 55.9504 24.5493 56.0384 24.344C56.2878 23.728 56.5738 22.9727 56.8964 22.078C57.2191 21.198 57.5491 20.274 57.8864 19.306C58.2238 18.338 58.5464 17.414 58.8544 16.534C59.1624 15.654 59.4338 14.928 59.6684 14.356C59.8884 13.828 60.0791 13.41 60.2404 13.102C60.4018 12.7793 60.6291 12.552 60.9224 12.42C61.2304 12.2733 61.6924 12.2 62.3084 12.2H62.9684C62.7631 12.3467 62.4918 12.684 62.1544 13.212C61.8318 13.7253 61.5238 14.268 61.2304 14.84C61.3331 14.708 61.4284 14.5833 61.5164 14.466C61.6044 14.334 61.6998 14.2167 61.8024 14.114C62.2718 13.542 62.7704 13.0653 63.2984 12.684C63.8264 12.3027 64.3398 12.112 64.8384 12.112C65.2491 12.112 65.5938 12.266 65.8724 12.574C66.1658 12.882 66.3124 13.4027 66.3124 14.136C66.3124 14.8107 66.1804 15.4927 65.9164 16.182C65.6671 16.8567 65.3298 17.502 64.9044 18.118C64.4791 18.7193 64.0098 19.2547 63.4964 19.724C63.3938 19.8267 63.2764 19.9293 63.1444 20.032C63.0271 20.12 62.9024 20.208 62.7704 20.296C63.2398 20.34 63.7018 20.23 64.1564 19.966C64.6258 19.702 65.0511 19.3793 65.4324 18.998C65.8284 18.6167 66.1511 18.272 66.4004 17.964C66.6938 17.5827 66.9871 17.1427 67.2804 16.644C67.5884 16.1453 67.8378 15.7053 68.0284 15.324C68.0871 15.2213 68.1384 15.17 68.1824 15.17C68.2998 15.17 68.3584 15.302 68.3584 15.566C68.3584 15.8007 68.2851 16.0427 68.1384 16.292C68.0211 16.512 67.8598 16.7907 67.6544 17.128C67.4491 17.4653 67.2658 17.7587 67.1044 18.008C66.4298 18.9907 65.6451 19.7973 64.7504 20.428C63.8558 21.0587 62.7778 21.374 61.5164 21.374C61.4138 21.374 61.3038 21.374 61.1864 21.374C61.0838 21.374 60.9738 21.3667 60.8564 21.352C60.5044 21.3227 60.1744 21.2347 59.8664 21.088C59.5584 20.956 59.3531 20.6993 59.2504 20.318L58.0184 24.168C57.8571 24.6813 57.7104 25.1067 57.5784 25.444C57.4318 25.7813 57.2558 26.0307 57.0504 26.192C56.8304 26.368 56.5151 26.456 56.1044 26.456H55.0484ZM60.3504 20.428C60.5998 20.428 60.8858 20.3033 61.2084 20.054C61.5311 19.79 61.8464 19.4673 62.1544 19.086C62.4771 18.69 62.7484 18.3087 62.9684 17.942C63.3058 17.3553 63.5918 16.754 63.8264 16.138C64.0611 15.522 64.1784 15.016 64.1784 14.62C64.1784 14.18 64.0024 13.96 63.6504 13.96C63.3424 13.96 63.0051 14.1067 62.6384 14.4C62.3744 14.6053 62.0738 14.906 61.7364 15.302C61.4138 15.698 61.0911 16.1453 60.7684 16.644C60.4604 17.128 60.2038 17.6267 59.9984 18.14C59.8078 18.6387 59.7124 19.0933 59.7124 19.504C59.7124 19.5773 59.7124 19.6507 59.7124 19.724C59.7271 19.7827 59.7418 19.8487 59.7564 19.922C59.8298 20.2593 60.0278 20.428 60.3504 20.428ZM71.9566 10.44C71.5753 10.308 71.3846 10.0587 71.3846 9.692C71.3846 9.35467 71.5166 9.01 71.7806 8.658C72.0593 8.29133 72.36 8.05667 72.6826 7.954C72.756 7.92467 72.8146 7.91 72.8586 7.91C72.9173 7.91 72.976 7.91 73.0346 7.91C73.284 7.91 73.4893 7.98333 73.6506 8.13C73.812 8.27667 73.8926 8.44533 73.8926 8.636C73.8926 8.9 73.7533 9.12 73.4746 9.296C73.2546 9.26667 73.042 9.318 72.8366 9.45C72.6313 9.582 72.448 9.74333 72.2866 9.934C72.14 10.1247 72.03 10.2933 71.9566 10.44ZM68.1726 21.132C67.982 21.132 67.7986 21.088 67.6226 21C67.4466 20.9267 67.3 20.7727 67.1826 20.538C67.0213 20.186 66.9406 19.768 66.9406 19.284C66.9406 18.756 67.0213 18.1693 67.1826 17.524C67.344 16.864 67.5566 16.1893 67.8206 15.5C67.9233 15.2507 68.0553 14.9427 68.2166 14.576C68.378 14.2093 68.5686 13.8427 68.7886 13.476C69.0086 13.1093 69.258 12.8087 69.5366 12.574C69.83 12.3247 70.1453 12.2 70.4826 12.2C70.644 12.2 70.8713 12.2073 71.1646 12.222C71.458 12.2367 71.6706 12.2367 71.8026 12.222C71.7146 12.2807 71.612 12.398 71.4946 12.574C71.3773 12.75 71.2673 12.9333 71.1646 13.124C71.062 13.3 70.9813 13.4393 70.9226 13.542C70.5413 14.3047 70.182 15.06 69.8446 15.808C69.5073 16.556 69.2506 17.2747 69.0746 17.964C69.0453 18.0813 69.0233 18.1987 69.0086 18.316C68.994 18.4333 68.9866 18.5433 68.9866 18.646C68.9866 19.0713 69.126 19.284 69.4046 19.284C69.522 19.284 69.6466 19.2547 69.7786 19.196C69.9253 19.1227 70.094 19.0127 70.2846 18.866C70.622 18.602 70.9153 18.3013 71.1646 17.964C71.458 17.5827 71.7366 17.1793 72.0006 16.754C72.2646 16.314 72.492 15.9107 72.6826 15.544C72.756 15.4267 72.8073 15.368 72.8366 15.368C72.9246 15.368 72.9686 15.4927 72.9686 15.742C72.9686 15.8593 72.9466 15.9987 72.9026 16.16C72.8733 16.3067 72.822 16.446 72.7486 16.578C72.5433 16.93 72.3013 17.3187 72.0226 17.744C71.744 18.1693 71.458 18.58 71.1646 18.976C70.9593 19.2547 70.688 19.5627 70.3506 19.9C70.0133 20.2373 69.654 20.5307 69.2726 20.78C68.8913 21.0147 68.5246 21.132 68.1726 21.132ZM77.7602 21.132C77.2615 21.132 76.9168 20.9853 76.7262 20.692C76.5502 20.384 76.4622 20.032 76.4622 19.636C76.4622 19.152 76.5575 18.5727 76.7482 17.898C76.9388 17.2087 77.1588 16.5193 77.4082 15.83C77.6722 15.126 77.9068 14.5027 78.1122 13.96C78.1708 13.828 78.2002 13.6887 78.2002 13.542C78.2002 13.3807 78.1488 13.2633 78.0462 13.19C77.9435 13.1167 77.8115 13.08 77.6502 13.08C77.4155 13.08 77.1515 13.1533 76.8582 13.3C76.4035 13.5347 75.9708 13.9087 75.5602 14.422C75.1495 14.9353 74.8195 15.4707 74.5702 16.028C74.2915 16.6587 74.0422 17.2893 73.8222 17.92C73.6022 18.5507 73.4262 19.064 73.2942 19.46C73.2062 19.7093 73.1255 19.966 73.0522 20.23C72.9788 20.494 72.9055 20.7507 72.8322 21H70.6982C70.6982 21 70.7495 20.8167 70.8522 20.45C70.9402 20.0833 71.0575 19.7167 71.2042 19.35C71.4535 18.7047 71.7028 18.0593 71.9522 17.414C72.2162 16.7687 72.4435 16.1967 72.6342 15.698C72.6928 15.5513 72.7808 15.28 72.8982 14.884C73.0302 14.4733 73.1475 14.048 73.2502 13.608C73.3675 13.168 73.4262 12.8087 73.4262 12.53C73.4262 12.3687 73.4042 12.2587 73.3602 12.2C73.4922 12.2 73.6388 12.2 73.8002 12.2C73.9762 12.1853 74.1375 12.178 74.2842 12.178C74.4895 12.178 74.6802 12.1853 74.8562 12.2C75.0468 12.2147 75.1715 12.2513 75.2302 12.31C75.4062 12.442 75.4942 12.6327 75.4942 12.882C75.4942 13.058 75.4575 13.234 75.3842 13.41C75.3255 13.586 75.2815 13.7327 75.2522 13.85C75.4575 13.6593 75.6702 13.476 75.8902 13.3C76.1102 13.124 76.4475 12.8967 76.9022 12.618C77.1662 12.4567 77.4962 12.3247 77.8922 12.222C78.2882 12.1193 78.6475 12.068 78.9702 12.068C79.8062 12.068 80.2242 12.4567 80.2242 13.234C80.2242 13.366 80.2095 13.5127 80.1802 13.674C80.1655 13.8353 80.1215 14.0113 80.0482 14.202C79.9748 14.4367 79.8575 14.7593 79.6962 15.17C79.5348 15.5807 79.3662 16.0207 79.1902 16.49C79.0288 16.9447 78.8895 17.3773 78.7722 17.788C78.6548 18.1987 78.5962 18.5287 78.5962 18.778C78.5962 19.13 78.7282 19.306 78.9922 19.306C79.2268 19.306 79.5202 19.1593 79.8722 18.866C80.2095 18.5873 80.5028 18.2867 80.7522 17.964C81.0602 17.5827 81.3388 17.1793 81.5882 16.754C81.8522 16.314 82.0795 15.9107 82.2702 15.544C82.3435 15.4267 82.3948 15.368 82.4242 15.368C82.5122 15.368 82.5562 15.4927 82.5562 15.742C82.5562 15.8593 82.5342 15.9987 82.4902 16.16C82.4608 16.3067 82.4095 16.446 82.3362 16.578C82.1308 16.93 81.8888 17.3187 81.6102 17.744C81.3315 18.1693 81.0455 18.58 80.7522 18.976C80.5468 19.2547 80.2755 19.5627 79.9382 19.9C79.6008 20.2373 79.2415 20.5307 78.8602 20.78C78.4788 21.0147 78.1122 21.132 77.7602 21.132Z" fill="#A54D4D"/>
</svg>
