<svg width="32" height="44" viewBox="0 0 32 44" fill="none" xmlns="http://www.w3.org/2000/svg">
<path d="M6.28809 12.5V6.25002C6.28811 5.15293 6.57692 4.07518 7.12549 3.12508C7.67405 2.17498 8.46304 1.38602 9.41315 0.837484C10.3633 0.288951 11.441 0.000176138 12.5381 0.000183106C13.6352 0.000190073 14.713 0.288979 15.6631 0.837524C16.6132 0.288979 17.691 0.000190073 18.788 0.000183106C19.8851 0.000176138 20.9629 0.288951 21.913 0.837484C22.8631 1.38602 23.6521 2.17498 24.2007 3.12508C24.7492 4.07518 25.0381 5.15293 25.0381 6.25002V12.5H26.6006C27.8438 12.5 29.0361 12.9939 29.9151 13.873C30.7942 14.752 31.2881 15.9443 31.2881 17.1875V37.5C31.2881 39.1576 30.6296 40.7473 29.4575 41.9194C28.2854 43.0915 26.6957 43.75 25.0381 43.75H6.28809C4.63048 43.75 3.04077 43.0915 1.86867 41.9194C0.696566 40.7473 0.0380859 39.1576 0.0380859 37.5V17.1875C0.0380859 15.9443 0.531946 14.752 1.41102 13.873C2.2901 12.9939 3.48238 12.5 4.72559 12.5H6.28809ZM9.41309 6.25002V12.5H15.6631V6.25002C15.6631 5.42122 15.3338 4.62637 14.7478 4.04032C14.1617 3.45426 13.3669 3.12502 12.5381 3.12502C11.7093 3.12502 10.9144 3.45426 10.3284 4.04032C9.74233 4.62637 9.41309 5.42122 9.41309 6.25002ZM25.0381 40.625C25.8669 40.625 26.6617 40.2958 27.2478 39.7097C27.8338 39.1237 28.1631 38.3288 28.1631 37.5V17.1875C28.1631 16.7731 27.9985 16.3757 27.7054 16.0827C27.4124 15.7896 27.015 15.625 26.6006 15.625H21.9131V37.5C21.9131 38.3288 22.2423 39.1237 22.8284 39.7097C23.4144 40.2958 24.2093 40.625 25.0381 40.625ZM18.7881 15.625H4.72559C4.31119 15.625 3.91376 15.7896 3.62073 16.0827C3.32771 16.3757 3.16309 16.7731 3.16309 17.1875V37.5C3.16309 38.3288 3.49233 39.1237 4.07838 39.7097C4.66443 40.2958 5.45928 40.625 6.28809 40.625H19.6256C19.077 39.6749 18.7881 38.5971 18.7881 37.5V15.625ZM18.7881 6.25002V12.5H21.9131V6.25002C21.9134 5.77289 21.8045 5.30202 21.5947 4.8735C21.3849 4.44497 21.0798 4.07018 20.7027 3.77786C20.3256 3.48554 19.8866 3.28344 19.4193 3.18707C18.952 3.0907 18.4688 3.10262 18.0068 3.2219C18.5068 4.11877 18.7881 5.15315 18.7881 6.25002Z" fill="#A54D4D"/>
</svg>
