<svg width="58" height="36" viewBox="0 0 58 36" fill="none" xmlns="http://www.w3.org/2000/svg">
<path d="M57.0987 9.65892C57.0956 9.22696 57.0013 8.79973 56.8231 8.409C56.6448 8.01826 56.3871 7.67406 56.069 7.40196C55.1093 6.80432 53.6426 6.96147 52.0701 7.13539C51.6805 7.17913 51.2879 7.21878 50.8922 7.25435C49.1234 7.39854 47.2125 7.34185 45.8239 6.834C43.6556 6.0454 41.7419 4.06397 40.4058 2.10526C38.9013 -0.156643 36.4995 1.39744 34.6419 2.59977C34.2946 2.82295 33.9646 3.03709 33.6655 3.211C32.3593 3.96042 30.7568 4.82602 29.0306 5.63113C28.6632 5.35197 28.2379 5.17402 27.7932 5.11339C27.3485 5.05276 26.8985 5.11137 26.4839 5.2839C26.0693 5.45643 25.7031 5.73745 25.4186 6.10151C25.1341 6.46557 24.9402 6.90118 24.8545 7.3689C23.6322 7.85666 22.4672 8.32844 21.3598 8.78422C20.9825 8.37033 20.4998 8.0844 19.9738 7.96317C19.4478 7.84194 18.9024 7.89093 18.4077 8.10385C17.9129 8.31678 17.4914 8.68391 17.1973 9.15812C16.9032 9.63233 16.7499 10.192 16.7571 10.7651C12.3469 12.7536 9.0741 14.5649 6.70138 16.5137C4.6914 18.1697 3.23924 19.9847 2.28317 22.1615C1.34301 24.3085 0.965341 26.6176 0.833222 29.1092C0.655682 32.4845 3.26853 35.0665 6.17946 35.0917L51.9154 35.4878C53.3424 35.5001 54.7064 34.9061 55.7074 33.8366C56.7083 32.7671 57.2642 31.3095 57.2527 29.7846L57.2311 26.9097L38.3986 26.7466C37.6882 26.7354 37.0061 26.4244 36.5014 25.8815C35.9966 25.3386 35.7101 24.6078 35.7044 23.8486C35.6987 23.0894 35.9742 22.3635 36.4708 21.8292C36.9675 21.295 37.6449 20.9957 38.3553 20.9968L57.1877 21.1599L57.0987 9.65892Z" fill="#521018"/>
</svg>
